<?xml version="1.0" ?><svg viewBox="0 0 64 64" xmlns="http://www.w3.org/2000/svg"><g data-name="Coin Magic" id="Coin_Magic"><path d="M46.48,27.59H41.84a12.65,12.65,0,1,0-19.68,0H17.52a4.41,4.41,0,0,0,0,8.82h.18L16,51.88A4.61,4.61,0,0,0,20.56,57H43.44A4.61,4.61,0,0,0,48,51.88L46.3,36.41h.18a4.41,4.41,0,1,0,0-8.82ZM21.35,19.65A10.65,10.65,0,0,1,32,9a10.64,10.64,0,0,1,7.08,18.59H24.92A10.59,10.59,0,0,1,21.35,19.65Zm24,34.48a2.57,2.57,0,0,1-1.94.87H20.56A2.61,2.61,0,0,1,18,52.11l1.21-11H44.82l1.21,11A2.59,2.59,0,0,1,45.38,54.13Zm-.79-15H19.41l.3-2.74H44.29Zm1.89-4.74h-29a2.41,2.41,0,0,1,0-4.82c2.49,0-3.13,0,29,0a2.41,2.41,0,1,1,0,4.82Z"/><path d="M37.2,16.14a4.18,4.18,0,0,0-5.2-.56,4.18,4.18,0,0,0-5.2.56h0a4.18,4.18,0,0,0,0,5.92l3.25,3.25a2.75,2.75,0,0,0,3.9,0l3.26-3.25a4.19,4.19,0,0,0,0-5.92Zm-1.41,4.5-3.25,3.25a.75.75,0,0,1-1.08,0l-3.25-3.26a2.18,2.18,0,0,1,3.08-3.08,1,1,0,0,0,1.42,0,2.18,2.18,0,1,1,3.08,3.08Z"/></g></svg>